<?xml version="1.0" encoding="UTF-8" standalone="no"?>
<!DOCTYPE svg PUBLIC "-//W3C//DTD SVG 1.1//EN"
 "http://www.w3.org/Graphics/SVG/1.1/DTD/svg11.dtd">
<!-- Generated by graphviz version 7.0.2 (20221119.0110)
 -->
<!-- Title: G Pages: 1 -->
<svg width="308pt" height="332pt"
 viewBox="0.00 0.00 308.00 332.00" xmlns="http://www.w3.org/2000/svg" xmlns:xlink="http://www.w3.org/1999/xlink">
<g id="graph0" class="graph" transform="scale(1 1) rotate(0) translate(4 328)">
<title>G</title>
<!-- 1 -->
<g id="node1" class="node">
<title>1</title>
<polygon fill="none" stroke="black" points="162,-324 79,-324 79,-288 162,-288 162,-324"/>
<text text-anchor="middle" x="120.5" y="-302.3" font-family="Times New Roman,serif" font-size="14.00">Chest Pain?</text>
</g>
<!-- 2 -->
<g id="node2" class="node">
<title>2</title>
<polygon fill="none" stroke="black" points="111.5,-252 57.5,-252 57.5,-216 111.5,-216 111.5,-252"/>
<text text-anchor="middle" x="84.5" y="-230.3" font-family="Times New Roman,serif" font-size="14.00">Yes?</text>
</g>
<!-- 1&#45;&gt;2 -->
<g id="edge1" class="edge">
<title>1&#45;&gt;2</title>
<path fill="none" stroke="black" d="M111.6,-287.7C107.63,-279.98 102.87,-270.71 98.44,-262.11"/>
<polygon fill="black" stroke="black" points="101.67,-260.74 93.99,-253.45 95.45,-263.94 101.67,-260.74"/>
</g>
<!-- 4 -->
<g id="node4" class="node">
<title>4</title>
<polygon fill="none" stroke="black" points="194.5,-252 140.5,-252 140.5,-216 194.5,-216 194.5,-252"/>
<text text-anchor="middle" x="167.5" y="-230.3" font-family="Times New Roman,serif" font-size="14.00">No?</text>
</g>
<!-- 1&#45;&gt;4 -->
<g id="edge2" class="edge">
<title>1&#45;&gt;4</title>
<path fill="none" stroke="black" d="M132.12,-287.7C137.41,-279.81 143.8,-270.3 149.68,-261.55"/>
<polygon fill="black" stroke="black" points="152.5,-263.61 155.17,-253.36 146.69,-259.71 152.5,-263.61"/>
</g>
<!-- 3 -->
<g id="node3" class="node">
<title>3</title>
<polygon fill="none" stroke="black" points="125,-180 0,-180 0,-144 125,-144 125,-180"/>
<text text-anchor="middle" x="62.5" y="-158.3" font-family="Times New Roman,serif" font-size="14.00">Heart Attack = Yes</text>
</g>
<!-- 2&#45;&gt;3 -->
<g id="edge3" class="edge">
<title>2&#45;&gt;3</title>
<path fill="none" stroke="black" d="M79.06,-215.7C76.72,-208.24 73.92,-199.32 71.29,-190.97"/>
<polygon fill="black" stroke="black" points="74.67,-190.04 68.33,-181.55 67.99,-192.14 74.67,-190.04"/>
</g>
<!-- 5 -->
<g id="node5" class="node">
<title>5</title>
<polygon fill="none" stroke="black" points="214,-180 143,-180 143,-144 214,-144 214,-180"/>
<text text-anchor="middle" x="178.5" y="-158.3" font-family="Times New Roman,serif" font-size="14.00">Exercice?</text>
</g>
<!-- 4&#45;&gt;5 -->
<g id="edge4" class="edge">
<title>4&#45;&gt;5</title>
<path fill="none" stroke="black" d="M170.22,-215.7C171.38,-208.32 172.76,-199.52 174.06,-191.25"/>
<polygon fill="black" stroke="black" points="177.48,-192.02 175.58,-181.6 170.57,-190.93 177.48,-192.02"/>
</g>
<!-- 6 -->
<g id="node6" class="node">
<title>6</title>
<polygon fill="none" stroke="black" points="160.5,-108 106.5,-108 106.5,-72 160.5,-72 160.5,-108"/>
<text text-anchor="middle" x="133.5" y="-86.3" font-family="Times New Roman,serif" font-size="14.00">Yes</text>
</g>
<!-- 5&#45;&gt;6 -->
<g id="edge5" class="edge">
<title>5&#45;&gt;6</title>
<path fill="none" stroke="black" d="M167.38,-143.7C162.31,-135.81 156.2,-126.3 150.57,-117.55"/>
<polygon fill="black" stroke="black" points="153.67,-115.9 145.31,-109.38 147.78,-119.68 153.67,-115.9"/>
</g>
<!-- 8 -->
<g id="node8" class="node">
<title>8</title>
<polygon fill="none" stroke="black" points="249.5,-108 195.5,-108 195.5,-72 249.5,-72 249.5,-108"/>
<text text-anchor="middle" x="222.5" y="-86.3" font-family="Times New Roman,serif" font-size="14.00">No</text>
</g>
<!-- 5&#45;&gt;8 -->
<g id="edge6" class="edge">
<title>5&#45;&gt;8</title>
<path fill="none" stroke="black" d="M189.38,-143.7C194.28,-135.9 200.18,-126.51 205.64,-117.83"/>
<polygon fill="black" stroke="black" points="208.58,-119.71 210.94,-109.39 202.66,-115.99 208.58,-119.71"/>
</g>
<!-- 7 -->
<g id="node7" class="node">
<title>7</title>
<polygon fill="none" stroke="black" points="160.5,-36 40.5,-36 40.5,0 160.5,0 160.5,-36"/>
<text text-anchor="middle" x="100.5" y="-14.3" font-family="Times New Roman,serif" font-size="14.00">Heart Attack = No</text>
</g>
<!-- 6&#45;&gt;7 -->
<g id="edge7" class="edge">
<title>6&#45;&gt;7</title>
<path fill="none" stroke="black" d="M125.34,-71.7C121.75,-64.07 117.43,-54.92 113.42,-46.4"/>
<polygon fill="black" stroke="black" points="116.64,-45.03 109.21,-37.47 110.31,-48.01 116.64,-45.03"/>
</g>
<!-- 9 -->
<g id="node9" class="node">
<title>9</title>
<polygon fill="none" stroke="black" points="300,-36 179,-36 179,0 300,0 300,-36"/>
<text text-anchor="middle" x="239.5" y="-14.3" font-family="Times New Roman,serif" font-size="14.00">Hear Attack = Yes</text>
</g>
<!-- 8&#45;&gt;9 -->
<g id="edge8" class="edge">
<title>8&#45;&gt;9</title>
<path fill="none" stroke="black" d="M226.7,-71.7C228.49,-64.32 230.63,-55.52 232.64,-47.25"/>
<polygon fill="black" stroke="black" points="236.03,-48.12 234.99,-37.58 229.23,-46.47 236.03,-48.12"/>
</g>
</g>
</svg>
