<?xml version="1.0" encoding="UTF-8" standalone="no"?>
<!DOCTYPE svg PUBLIC "-//W3C//DTD SVG 1.1//EN"
 "http://www.w3.org/Graphics/SVG/1.1/DTD/svg11.dtd">
<!-- Generated by graphviz version 7.0.2 (20221119.0110)
 -->
<!-- Title: G Pages: 1 -->
<svg width="206pt" height="188pt"
 viewBox="0.00 0.00 205.50 188.00" xmlns="http://www.w3.org/2000/svg" xmlns:xlink="http://www.w3.org/1999/xlink">
<g id="graph0" class="graph" transform="scale(1 1) rotate(0) translate(4 184)">
<title>G</title>
<!-- 1 -->
<g id="node1" class="node">
<title>1</title>
<polygon fill="none" stroke="black" points="158,-180 75,-180 75,-144 158,-144 158,-180"/>
<text text-anchor="middle" x="116.5" y="-158.3" font-family="Times New Roman,serif" font-size="14.00">Chest Pain?</text>
</g>
<!-- 2 -->
<g id="node2" class="node">
<title>2</title>
<polygon fill="none" stroke="black" points="107.5,-108 53.5,-108 53.5,-72 107.5,-72 107.5,-108"/>
<text text-anchor="middle" x="80.5" y="-86.3" font-family="Times New Roman,serif" font-size="14.00">Yes?</text>
</g>
<!-- 1&#45;&gt;2 -->
<g id="edge1" class="edge">
<title>1&#45;&gt;2</title>
<path fill="none" stroke="black" d="M107.6,-143.7C103.63,-135.98 98.87,-126.71 94.44,-118.11"/>
<polygon fill="black" stroke="black" points="97.67,-116.74 89.99,-109.45 91.45,-119.94 97.67,-116.74"/>
</g>
<!-- 4 -->
<g id="node4" class="node">
<title>4</title>
<polygon fill="none" stroke="black" points="188.5,-108 134.5,-108 134.5,-72 188.5,-72 188.5,-108"/>
<text text-anchor="middle" x="161.5" y="-86.3" font-family="Times New Roman,serif" font-size="14.00">No?</text>
</g>
<!-- 1&#45;&gt;4 -->
<g id="edge2" class="edge">
<title>1&#45;&gt;4</title>
<path fill="none" stroke="black" d="M127.62,-143.7C132.69,-135.81 138.8,-126.3 144.43,-117.55"/>
<polygon fill="black" stroke="black" points="147.22,-119.68 149.69,-109.38 141.33,-115.9 147.22,-119.68"/>
</g>
<!-- 3 -->
<g id="node3" class="node">
<title>3</title>
<polygon fill="none" stroke="black" points="125,-36 0,-36 0,0 125,0 125,-36"/>
<text text-anchor="middle" x="62.5" y="-14.3" font-family="Times New Roman,serif" font-size="14.00">Heart Attack = Yes</text>
</g>
<!-- 2&#45;&gt;3 -->
<g id="edge3" class="edge">
<title>2&#45;&gt;3</title>
<path fill="none" stroke="black" d="M76.05,-71.7C74.15,-64.32 71.89,-55.52 69.76,-47.25"/>
<polygon fill="black" stroke="black" points="73.16,-46.38 67.28,-37.57 66.38,-48.13 73.16,-46.38"/>
</g>
<!-- 5 -->
<g id="node5" class="node">
<title>5</title>
<polygon fill="none" stroke="black" points="197.5,-36 143.5,-36 143.5,0 197.5,0 197.5,-36"/>
<text text-anchor="middle" x="170.5" y="-14.3" font-family="Times New Roman,serif" font-size="14.00">?</text>
</g>
<!-- 4&#45;&gt;5 -->
<g id="edge4" class="edge">
<title>4&#45;&gt;5</title>
<path fill="none" stroke="black" d="M163.72,-71.7C164.67,-64.32 165.8,-55.52 166.87,-47.25"/>
<polygon fill="black" stroke="black" points="170.3,-47.97 168.11,-37.61 163.36,-47.08 170.3,-47.97"/>
</g>
</g>
</svg>
